<svg width="100%" viewBox="0 0 680 520" role="img" xmlns="http://www.w3.org/2000/svg">
<title>Realty Map - Main Line Concept Map</title>
<style>a.scene-node{cursor:pointer}a.scene-node:hover{opacity:0.82}</style>
<defs>
<marker id="arrow" viewBox="0 0 10 10" refX="8" refY="5" markerWidth="6" markerHeight="6" orient="auto-start-reverse"><path d="M2 1L8 5L2 9" fill="none" stroke="context-stroke" stroke-width="1.5" stroke-linecap="round" stroke-linejoin="round"/></marker>
<mask id="img-gap" maskUnits="userSpaceOnUse"><rect x="0" y="0" width="680" height="520" fill="white"/><rect x="36" y="16" width="78" height="22" fill="black" rx="2"/><rect x="312" y="48" width="36" height="22" fill="black" rx="2"/><rect x="291" y="232" width="78" height="22" fill="black" rx="2"/><rect x="290" y="254" width="80" height="20" fill="black" rx="2"/><rect x="82" y="104" width="80" height="20" fill="black" rx="2"/><rect x="500" y="104" width="116" height="20" fill="black" rx="2"/><rect x="92" y="142" width="60" height="22" fill="black" rx="2"/><rect x="85" y="190" width="74" height="22" fill="black" rx="2"/><rect x="85" y="238" width="72" height="22" fill="black" rx="2"/><rect x="514" y="238" width="88" height="22" fill="black" rx="2"/><rect x="312" y="408" width="36" height="22" fill="black" rx="2"/><rect x="260" y="450" width="140" height="20" fill="black" rx="2"/><rect x="539" y="240" width="74" height="22" fill="black" rx="2"/><rect x="530" y="260" width="92" height="20" fill="black" rx="2"/></mask>
</defs>

<text x="40" y="32" style="fill:#0b0b0b;font-family:Arial,sans-serif;font-size:14px;font-weight:500">现实怎么来</text>

<line x1="330" y1="94" x2="330" y2="196" stroke="#898781" stroke-width="0.5" opacity="0.5" marker-end="url(#arrow)"/>

<a href="02_start.html#scene-wuji" class="scene-node" target="_top">
<g><circle cx="330" cy="80" r="12" fill="#f1efe8" stroke="#5f5e5a" stroke-width="0.5"/><text x="330" y="64" text-anchor="middle" fill="#0b0b0b" font-family="Arial,sans-serif" font-size="14" font-weight="500">无迹</text></g>
</a>

<a href="07_worldtopos.html#scene-lishi" class="scene-node" target="_top">
<g><circle cx="330" cy="250" r="52" fill="#eeedfe" stroke="#534ab7" stroke-width="0.5"/><text x="330" y="243" text-anchor="middle" dominant-baseline="central" fill="#0b0b0b" font-family="Arial,sans-serif" font-size="14" font-weight="500">历史一致性</text><text x="330" y="263" text-anchor="middle" dominant-baseline="central" fill="#52514e" font-family="Arial,sans-serif" font-size="12">核对，照不裁</text></g>
</a>

<a href="05_unknowable.html#scene-sanzhong" class="scene-node" target="_top">
<g><text x="122" y="118" text-anchor="middle" fill="#52514e" font-family="Arial,sans-serif" font-size="12">够不到的位置</text></g>
</a>

<text x="558" y="118" text-anchor="middle" fill="#52514e" font-family="Arial,sans-serif" font-size="12">够得到却不可对象化</text>

<a href="04_intentionality.html#scene-heng" class="scene-node" target="_top">
<g><rect x="40" y="134" width="164" height="38" rx="8" fill="#e6f1fb" stroke="#185fa5" stroke-width="0.5"/><text x="122" y="153" text-anchor="middle" dominant-baseline="central" fill="#0b0b0b" font-family="Arial,sans-serif" font-size="14" font-weight="500">横向 · 锚</text></g>
</a>

<a href="03_twostreams.html#scene-zong" class="scene-node" target="_top">
<g><rect x="40" y="182" width="164" height="38" rx="8" fill="#e6f1fb" stroke="#185fa5" stroke-width="0.5"/><text x="122" y="201" text-anchor="middle" dominant-baseline="central" fill="#0b0b0b" font-family="Arial,sans-serif" font-size="14" font-weight="500">纵向 · 未来</text></g>
</a>

<a href="09_assertion.html#scene-dui" class="scene-node" target="_top">
<g><rect x="40" y="230" width="164" height="38" rx="8" fill="#e6f1fb" stroke="#185fa5" stroke-width="0.5"/><text x="122" y="249" text-anchor="middle" dominant-baseline="central" fill="#0b0b0b" font-family="Arial,sans-serif" font-size="14" font-weight="500">D 对齐 · 板</text></g>
</a>

<line x1="204" y1="153" x2="282" y2="228" stroke="#185fa5" stroke-width="0.7" opacity="0.4"/>
<line x1="204" y1="201" x2="279" y2="238" stroke="#185fa5" stroke-width="0.7" opacity="0.4"/>
<line x1="204" y1="249" x2="282" y2="256" stroke="#185fa5" stroke-width="0.7" opacity="0.4"/>

<a href="06_theother.html#scene-taren" class="scene-node" target="_top">
<g><rect x="476" y="230" width="164" height="38" rx="8" fill="#faece7" stroke="#993c1d" stroke-width="0.5"/><text x="558" y="249" text-anchor="middle" dominant-baseline="central" fill="#0b0b0b" font-family="Arial,sans-serif" font-size="14" font-weight="500">他者 · 抹不平</text></g>
</a>

<line x1="476" y1="249" x2="382" y2="252" stroke="#993c1d" stroke-width="0.7" opacity="0.5" marker-end="url(#arrow)"/>

<line x1="330" y1="302" x2="330" y2="392" stroke="#ba7517" stroke-width="0.8" opacity="0.6" marker-end="url(#arrow)"/>

<a href="10_classicalworld.html#scene-xianshi" class="scene-node" target="_top">
<g><rect x="245" y="396" width="170" height="46" rx="8" fill="#faeeda" stroke="#854f0b" stroke-width="0.5"/><text x="330" y="419" text-anchor="middle" dominant-baseline="central" fill="#0b0b0b" font-family="Arial,sans-serif" font-size="14" font-weight="500">现实</text></g>
</a>

<text x="330" y="464" text-anchor="middle" fill="#52514e" font-family="Arial,sans-serif" font-size="12">岛是真的，海不因此变浅</text>

<path d="M415 412 C 585 380, 605 150, 356 80" fill="none" stroke="#0f6e56" stroke-width="1" opacity="0.75" marker-end="url(#arrow)" mask="url(#img-gap)"/>

<a href="12_epilogue.html#scene-songshou" class="scene-node" target="_top">
<g><text x="576" y="256" text-anchor="middle" fill="#0b0b0b" font-family="Arial,sans-serif" font-size="14" font-weight="500">松手 · 重定</text><text x="576" y="274" text-anchor="middle" fill="#52514e" font-family="Arial,sans-serif" font-size="12">撤锚，回到无迹</text></g>
</a>

</svg>