<svg preserveAspectRatio="xMidYMid meet" width="100%" viewBox="0 0 680 600" role="img" xmlns="http://www.w3.org/2000/svg">
<!--svg-dark:v1-->
<rect x="0" y="0" width="680" height="600" fill="#1e1e1c"/><title>经典世界怎么被认出来</title><desc>暖色生成主线，够不到的边界用深色饱和底</desc>

<defs>
<marker id="arrow" viewBox="0 0 10 10" refX="8" refY="5" markerWidth="6" markerHeight="6" orient="auto-start-reverse"><path d="M2 1L8 5L2 9" fill="none" stroke="context-stroke" stroke-width="2.0" stroke-linecap="round" stroke-linejoin="round"/></marker>
<filter id="glow-gold" x="-20%" y="-20%" width="140%" height="140%"><feGaussianBlur stdDeviation="3.5" result="blur"/><feFlood flood-color="#d8a040" flood-opacity="0.9" result="color"/><feComposite in="color" in2="blur" operator="in" result="glow"/><feMerge><feMergeNode in="glow"/><feMergeNode in="SourceGraphic"/></feMerge></filter>
<mask id="img-gap" maskUnits="userSpaceOnUse"><rect x="0" y="0" width="680" height="600" fill="white"/><rect x="36" y="11.0" width="148" height="25.333" fill="black" rx="2"/><rect x="312" y="29.0" width="36" height="25.333" fill="black" rx="2"/><rect x="291" y="185.333" width="78" height="25.333" fill="black" rx="2"/><rect x="290" y="206.333" width="80" height="23.333" fill="black" rx="2"/><rect x="80" y="113.0" width="80" height="23.333" fill="black" rx="2"/><rect x="78.333" y="151.333" width="87.333" height="21.333" fill="black" rx="2"/><rect x="85.333" y="201.333" width="73.333" height="21.333" fill="black" rx="2"/><rect x="71.646" y="294.333" width="100.708" height="21.333" fill="black" rx="2"/><rect x="58" y="312.333" width="128" height="23.333" fill="black" rx="2"/><rect x="312" y="387.333" width="36" height="25.333" fill="black" rx="2"/><rect x="78.333" y="384.333" width="87.333" height="21.333" fill="black" rx="2"/><rect x="70" y="402.333" width="104" height="23.333" fill="black" rx="2"/><rect x="212" y="375.0" width="32" height="23.333" fill="black" rx="2"/><rect x="421" y="375.0" width="56" height="23.333" fill="black" rx="2"/><rect x="514.333" y="382.333" width="115.333" height="21.333" fill="black" rx="2"/><rect x="520" y="400.333" width="104" height="23.333" fill="black" rx="2"/><rect x="260" y="447.0" width="140" height="23.333" fill="black" rx="2"/><rect x="463.333" y="294.333" width="73.333" height="21.333" fill="black" rx="2"/><rect x="454" y="312.333" width="92" height="23.333" fill="black" rx="2"/></mask></defs>

<text x="40" y="28" fill="#e8e4dc" font-family="Arial,sans-serif" font-size="17" font-weight="500">经典世界怎么被认出来</text>

<line x1="330" y1="76" x2="330" y2="150" stroke="#d8a040" stroke-width="1.3" opacity="0.85" marker-end="url(#arrow)"/>
<a href="02_start.html#scene-wuji" class="scene-node" target="_top">
<g>
<circle cx="330" cy="62" r="12" fill="#3a3a38" stroke="#9b97a0" stroke-width="1.0"/>
<text x="330" y="46" text-anchor="middle" fill="#e8e4dc" font-family="Arial,sans-serif" font-size="17" font-weight="500">无迹</text>
</g>
</a>

<a href="07_worldtopos.html#scene-lishi" class="scene-node" target="_top">
<g>
<circle cx="330" cy="204" r="52" fill="#3a2e0a" stroke="#c88a2a" stroke-width="1.0"/>
<text x="330" y="197" text-anchor="middle" dominant-baseline="central" fill="#e8e4dc" font-family="Arial,sans-serif" font-size="17" font-weight="500">历史一致性</text>
<text x="330" y="217" text-anchor="middle" dominant-baseline="central" fill="#d8d4cc" font-family="Arial,sans-serif" font-size="15">核对，照不裁</text>
</g>
</a>

<a href="05_unknowable.html#scene-sanzhong" class="scene-node" target="_top">
<g>
<text x="120" y="128" text-anchor="middle" fill="#e0dcd4" font-family="Arial,sans-serif" font-size="15">够不到的位置</text>
</g>
</a>

<a href="05_unknowable.html#scene-sanzhong" class="scene-node" target="_top">
<g>
<rect x="34" y="142" width="176" height="40" rx="8" fill="#712B13" stroke="#8a3a20" stroke-width="1.0"/>
<text x="122" y="162" text-anchor="middle" dominant-baseline="central" fill="#F5C4B3" font-family="Arial,sans-serif" font-size="17" font-weight="500">横向 · 参考态</text>
</g>
</a>
<line x1="210" y1="176" x2="276" y2="192" stroke="#c88a40" stroke-width="1.5" opacity="0.95" marker-end="url(#arrow)"/>

<a href="05_unknowable.html#scene-sanzhong" class="scene-node" target="_top">
<g>
<rect x="34" y="192" width="176" height="40" rx="8" fill="#791F1F" stroke="#a03030" stroke-width="1.0"/>
<text x="122" y="212" text-anchor="middle" dominant-baseline="central" fill="#F7C1C1" font-family="Arial,sans-serif" font-size="17" font-weight="500">纵向 · 单侧</text>
</g>
</a>
<line x1="210" y1="212" x2="278" y2="212" stroke="#d85050" stroke-width="1.5" opacity="0.9" marker-end="url(#arrow)"/>

<line x1="330" y1="256" x2="330" y2="372" stroke="#d8a040" stroke-width="1.4" opacity="0.9" marker-end="url(#arrow)"/>

<a href="05_unknowable.html#scene-sanzhong" class="scene-node" target="_top">
<g>
<rect x="34" y="288" width="176" height="46" rx="8" fill="#0C447C" stroke="#1a5a9a" stroke-width="1.0"/>
<text x="122" y="305" text-anchor="middle" dominant-baseline="central" fill="#B5D4F4" font-family="Arial,sans-serif" font-size="17" font-weight="500">脚手架 · D 对齐</text>
<text x="122" y="323" text-anchor="middle" dominant-baseline="central" fill="#85B7EB" font-family="Arial,sans-serif" font-size="15">时空几何，现实的基础</text>
</g>
</a>
<line x1="210" y1="311" x2="326" y2="311" stroke="#3a8ac8" stroke-width="1.5" opacity="0.9" marker-end="url(#arrow)"/>

<a href="10_classicalworld.html#scene-xianshi" class="scene-node" target="_top">
<g>
<rect x="248" y="376" width="164" height="46" rx="8" fill="#3a2e0a" stroke="#c88a2a" stroke-width="1.0"/>
<text x="330" y="399" text-anchor="middle" dominant-baseline="central" fill="#e8e4dc" font-family="Arial,sans-serif" font-size="17" font-weight="500">现实</text>
</g>
</a>

<a href="06_theother.html#scene-taren" class="scene-node" target="_top">
<g>
<rect x="34" y="378" width="176" height="46" rx="8" fill="none" stroke="#5ac820" stroke-width="1.5" stroke-dasharray="5 4"/>
<text x="122" y="395" text-anchor="middle" dominant-baseline="central" fill="#8ad060" font-family="Arial,sans-serif" font-size="17" font-weight="500">他者 · 抹不平</text>
<text x="122" y="413" text-anchor="middle" dominant-baseline="central" fill="#5ac820" font-family="Arial,sans-serif" font-size="15">吸收后剩下的一处</text>
</g>
</a>
<line x1="212" y1="399" x2="244" y2="399" stroke="#5ac820" stroke-width="1.4" opacity="0.9" marker-end="url(#arrow)"/>
<text x="228" y="390" text-anchor="middle" fill="#8ad060" font-family="Arial,sans-serif" font-size="15">重切</text>

<line x1="412" y1="399" x2="486" y2="399" stroke="#d8a040" stroke-width="1.3" opacity="0.85" marker-end="url(#arrow)"/>
<text x="449" y="390" text-anchor="middle" fill="#c8a040" font-family="Arial,sans-serif" font-size="15">账本扩大</text>

<a href="08_intuition.html#scene-luoji" class="scene-node" target="_top">
<g>
<rect x="488" y="376" width="168" height="46" rx="8" fill="#854F0B" stroke="#8a5a20" stroke-width="1.0"/>
<text x="572" y="393" text-anchor="middle" dominant-baseline="central" fill="#FAC775" font-family="Arial,sans-serif" font-size="17" font-weight="500">直觉 · 逻辑的边界</text>
<text x="572" y="411" text-anchor="middle" dominant-baseline="central" fill="#FAC775" font-family="Arial,sans-serif" font-size="15">压到底，撞见病句</text>
</g>
</a>

<text x="330" y="462" text-anchor="middle" fill="#e0dcd4" font-family="Arial,sans-serif" font-size="15">岛是真的，海不因此变浅</text>

<path d="M414 396 C 610 380, 620 210, 500 156" fill="none" stroke="#3ac8a0" stroke-width="1.5" opacity="0.9" mask="url(#img-gap)"/>
<path d="M500 156 C 430 130, 392 112, 360 92" fill="none" stroke="#3ac8a0" stroke-width="1.5" opacity="0.9" marker-end="url(#arrow)"/>

<a href="12_epilogue.html#scene-songshou" class="scene-node" target="_top">
<g>
<rect x="422" y="288" width="156" height="46" rx="8" fill="none" stroke="#3ac8a0" stroke-width="1.5" stroke-dasharray="5 4"/>
<text x="500" y="305" text-anchor="middle" dominant-baseline="central" fill="#3ac8a0" font-family="Arial,sans-serif" font-size="17" font-weight="500">松手 · 重定</text>
<text x="500" y="323" text-anchor="middle" dominant-baseline="central" fill="#3ac8a0" font-family="Arial,sans-serif" font-size="15">撤锚，回到无迹</text>
</g>
</a>

</svg>
